<?xml version="1.0" encoding="utf-8"?>
<!-- Generator: Adobe Illustrator 22.1.0, SVG Export Plug-In . SVG Version: 6.00 Build 0)  -->
<svg version="1.1" id="Layer_1" xmlns="http://www.w3.org/2000/svg" xmlns:xlink="http://www.w3.org/1999/xlink" x="0px" y="0px"
	 viewBox="0 0 1197.5 1041.2" style="enable-background:new 0 0 1197.5 1041.2;" xml:space="preserve">
<style type="text/css">
	.st0{fill-rule:evenodd;clip-rule:evenodd;fill:#F05C61;}
	.st1{fill-rule:evenodd;clip-rule:evenodd;fill:#FFFFFF;}
	.st2{fill:#F05C61;}
</style>
<g>
	<path class="st0" d="M423.6,884.9c10.2-3.9,21.3-7.7,30.6-11.6c15.3-6.2,29.8-12.3,43.4-17.8l0.9-0.8
		C626,801.5,755.3,744.4,882.9,684.2l5.1-2.3c12.8-6.2,26.4-12.4,40-18.5c15.3-7.7,31.5-15.4,46.8-27.8c34-24.7,52.7-60.2,52.7-98
		c0-38.6-18.7-73.3-51-98.8c-15.3-11.6-31.5-20.1-46.8-27.8c-13.6-6.2-27.2-12.4-40-18.5l-5.1-2.3
		C757,330.7,627.7,272.8,500.2,219.6l-1.7-0.8c-13.6-5.4-28.1-11.6-43.4-17.8c-9.4-3.9-19.6-7.7-30.6-11.6
		c-31.5-10-61.2-13.1-91.9-9.3c-63.8,8.5-117.4,47.1-141.2,100.3c-9.4,20.1-13.6,40.9-13.6,62.5c0,6.2,0.9,13.9,1.7,20.1
		c3.4,25.5,12.8,51.7,28.9,77.2C228,471.9,256,502,296.9,536c-40.8,34-68.9,64.8-88.5,95.7c-16.2,25.5-25.5,51.7-28.9,77.2
		c-0.9,6.2-1.7,13.9-1.7,20.1c0,21.6,4.3,43.2,13.6,62.5c23.8,54,78.3,91.8,141.2,100.3C362.4,898,392.1,894.9,423.6,884.9
		L423.6,884.9z M379.4,536.8c12.3-36,15.2-55.4,60-77.5c18.5-9.2,36.6-4.6,51.9-2.3c13.6,1.5,25.5,6.2,35.7,12.4
		c23,14.7,37.4,39.4,37.4,67.9c0,28.6-13.6,54-37.4,67.9c-10.2,6.2-22.1,10.8-35.7,12.4c-15.3,2.3-33.2,1.5-51.9-2.3
		c-44.4-9.1-49.4-56.7-58.8-77C380.2,537.7,379.8,537.3,379.4,536.8L379.4,536.8z M339.4,844.7c-44.2-5.4-82.5-32.4-99.5-70.2
		c-8.5-18.5-11.1-38.6-8.5-58.7c2.6-19.3,9.4-38.6,22.1-58.7c17-27.8,43.4-55.6,82.5-88c0.1,0.1-4.3,3.5-4.3,3.6
		c25.6,39.7,34.8,66.9,94,90.3c25,9.9,50.2,6.2,72.3,3.9c21.3-3.1,40.8-10,57.8-20.8c38.3-23.9,60.4-64.1,60.4-108.8
		c0-44.8-23-84.9-60.4-108.8c-17-10.8-36.6-17.8-57.8-20.8c-22.1-3.1-46.4-2.8-70.8,7c-35.5,14.4-64.7,51.1-92.1,89.8
		c-0.2,0.2,0.2-0.2,0,0c-39.1-31.6-65.5-60.2-82.5-88c-12.8-20.1-19.6-39.4-22.1-58.7c-2.5-20.8,0.9-40.9,8.5-58.7
		c17-37.8,55.3-64.8,99.5-70.2c21.3-2.3,42.5-0.8,66.3,6.9c8.5,2.3,17,6.2,27.2,10c13.6,5.4,28.1,11.6,42.5,17.8l1.7,0.8
		c126.7,53.3,256,110.4,381.9,169.8l5.1,2.3c12.8,6.2,26.4,12.3,39.1,18.5c13.6,6.2,26.4,13.1,37.4,21.6
		c20.4,16.2,31.5,37.8,31.5,61.7c0,23.9-11.1,45.5-31.5,61.7c-11.1,8.5-23.8,15.4-37.4,21.6c-12.8,6.2-26.4,12.3-39.1,18.5l-5.1,2.3
		c-126.7,58.7-256,115.8-382.8,169h-0.9c-13.6,6.2-28.9,11.6-42.5,17.8c-10.2,3.9-18.7,7.7-27.2,10
		C382.8,845.5,361.5,847.8,339.4,844.7L339.4,844.7z"/>
	<ellipse class="st1" cx="471.9" cy="537" rx="93.6" ry="84.8"/>
	<path class="st0" d="M790.8,481.5c0,16.4-13.3,29.6-29.8,29.6c-16.5,0-29.8-13.2-29.8-29.6c0-16.4,12.8-29.6,29.8-29.6
		C777.9,452.4,790.8,465.6,790.8,481.5L790.8,481.5z"/>
	<path class="st2" d="M829.6,659.9c-7.2,4.8-16.6,8-27.2,7.6c-28.3-0.9-49.6-18.7-50.1-47.8c-11.3-0.5-22.5-0.9-33.8-0.5
		c-3.6,0.1-7-0.7-10.2-2.2c-1,51.2,36.4,90,85.8,91.6c30.1,1,44.9-17,45-17.2L829.6,659.9L829.6,659.9z"/>
	<polygon class="st1" points="363.3,529.1 391.5,493.5 391.5,580.4 359.9,534.1 	"/>
</g>
</svg>
