<?xml version="1.0" encoding="utf-8"?>
<!-- Generator: Adobe Illustrator 22.1.0, SVG Export Plug-In . SVG Version: 6.00 Build 0)  -->
<svg version="1.1"
	 id="Layer_1" xmlns:cc="http://creativecommons.org/ns#" xmlns:dc="http://purl.org/dc/elements/1.1/" xmlns:inkscape="http://www.inkscape.org/namespaces/inkscape" xmlns:rdf="http://www.w3.org/1999/02/22-rdf-syntax-ns#" xmlns:sodipodi="http://sodipodi.sourceforge.net/DTD/sodipodi-0.dtd" xmlns:svg="http://www.w3.org/2000/svg"
	 xmlns="http://www.w3.org/2000/svg" xmlns:xlink="http://www.w3.org/1999/xlink" x="0px" y="0px" viewBox="0 0 1 1.3"
	 style="enable-background:new 0 0 1 1.3;" xml:space="preserve">
<g transform="translate(0,-952.36218)">
	<path d="M53.8,813.8c-0.8,0-1.6,0.6-1.9,1.3c-2.2,6.1-6.3,8.4-11.7,9.8s-11.9,1.5-17.9,3c-5,1.3-9.7,3.7-12.7,8.7l-1.1-1.8
		c-0.4-0.6-1.1-1-1.8-1c-1.4,0.1-2.3,1.9-1.6,3l38,64c0.3,0.6,1.1,1,1.7,1c1.3,0,2-1,2-2c0-0.4-0.1-0.7-0.3-1l-17.4-29.3
		c2.7-6.3,7.2-8.4,13.1-9.7c5.1-1.1,11.2-1.5,16.9-3.2c5.7-1.7,11-5.2,13.5-12.1c0.4-1-0.2-2.2-1.2-2.6l-15.7-5.5v-20.6
		C55.8,814.7,54.9,813.8,53.8,813.8z M51.8,822.7v15.1c0,0.8,0.6,1.6,1.3,1.9l14.8,5.2c-2.2,4.3-5.6,6.4-10,7.8
		c-5,1.5-11.1,1.9-16.6,3.1c-5.7,1.3-11.2,3.8-14.7,9.6L12,840.6c0.1-0.1,0.1-0.2,0.2-0.3c2.3-5.3,6.1-7.3,11.2-8.6
		c5.4-1.3,11.9-1.5,17.9-3C45.1,827.7,48.9,825.8,51.8,822.7z"/>
</g>
</svg>
