<?xml version="1.0" encoding="utf-8"?>
<!-- Generator: Adobe Illustrator 22.1.0, SVG Export Plug-In . SVG Version: 6.00 Build 0)  -->
<svg version="1.1" id="Layer_1" xmlns="http://www.w3.org/2000/svg" xmlns:xlink="http://www.w3.org/1999/xlink" x="0px" y="0px"
	 viewBox="0 0 100 98.4" style="enable-background:new 0 0 100 98.4;" xml:space="preserve">
<path d="M87.8,70.2c-4.6-6.7-20.5-10.9-27-15.3c5.5-5.6,9.7-15,9.2-24.8c-0.5-11-8.7-19.9-19.6-20h-0.2l0,0
	C39.3,10.2,31,19.1,30.5,30c-0.5,9.9,3.7,19.2,9.2,24.9c-6.5,4.4-22.4,8.7-27,15.3c-5.8,8.4-3.6,13-3,15.5l0,0
	c0,5.2,18.2,9.4,40.6,9.4c21.7,0,39.3-3.9,40.5-8.9l0,0C90.7,86.2,94.4,79.7,87.8,70.2z"/>
</svg>
