<?xml version="1.0" encoding="utf-8"?>
<!-- Generator: Adobe Illustrator 22.1.0, SVG Export Plug-In . SVG Version: 6.00 Build 0)  -->
<svg version="1.1" id="Layer_1" xmlns="http://www.w3.org/2000/svg" xmlns:xlink="http://www.w3.org/1999/xlink" x="0px" y="0px"
	 viewBox="0 0 16.6 16.6" style="enable-background:new 0 0 16.6 16.6;" xml:space="preserve">
<title>rounded</title>
<path d="M16.2,15.5L12.7,12C15.2,9,14.9,4.6,12,2.1S4.6-0.2,2.1,2.8s-2.2,7.4,0.7,9.9c2.6,2.3,6.6,2.3,9.2,0l3.6,3.6
	c0.2,0.2,0.5,0.2,0.7,0C16.4,16,16.4,15.7,16.2,15.5z M7.4,13.4c-3.3,0-6-2.7-6-6s2.7-6,6-6s6,2.7,6,6C13.4,10.7,10.7,13.4,7.4,13.4
	z"/>
</svg>
